<?xml version="1.0" encoding="UTF-8"?>
<!-- Created with Inkscape (http://www.inkscape.org/) -->
<svg width="61.727mm" height="9.8444mm" version="1.1" viewBox="0 0 61.727 9.8444" xmlns="http://www.w3.org/2000/svg" xmlns:cc="http://creativecommons.org/ns#" xmlns:dc="http://purl.org/dc/elements/1.1/" xmlns:rdf="http://www.w3.org/1999/02/22-rdf-syntax-ns#">
 <metadata>
  <rdf:RDF>
   <cc:Work rdf:about="">
    <dc:format>image/svg+xml</dc:format>
    <dc:type rdf:resource="http://purl.org/dc/dcmitype/StillImage"/>
    <dc:title/>
   </cc:Work>
  </rdf:RDF>
 </metadata>
 <g transform="translate(-46.749 -107.08)">
  <g stroke-width=".26458" aria-label="WorldMap3D">
   <path d="m54.154 112.7q0 0.45992-0.1757 0.86816-0.17053 0.40308-0.47542 0.70797-0.29972 0.29972-0.70797 0.47542-0.40308 0.17054-0.863 0.17054-0.41341 0-0.79582-0.1447-0.37724-0.14469-0.68213-0.42374-0.30489 0.27905-0.6873 0.42374-0.3824 0.1447-0.79582 0.1447-0.45992 0-0.86816-0.17054-0.40308-0.1757-0.70797-0.47542-0.29972-0.30489-0.47542-0.70797-0.17053-0.40824-0.17053-0.86816v-5.2917h1.4831v5.2917q0 0.15503 0.05684 0.29456 0.05684 0.13435 0.15503 0.23771 0.10335 0.0982 0.23771 0.15503 0.13436 0.0568 0.28939 0.0568t0.28939-0.0568 0.23254-0.15503q0.10335-0.10336 0.1602-0.23771 0.05684-0.13953 0.05684-0.29456v-5.2917h1.4831v5.2917q0 0.15503 0.05684 0.29456 0.05684 0.13435 0.15503 0.23771 0.10335 0.0982 0.23771 0.15503 0.13436 0.0568 0.28939 0.0568 0.15503 0 0.28939-0.0568 0.13436-0.0568 0.23254-0.15503 0.10335-0.10336 0.1602-0.23771 0.06201-0.13953 0.06201-0.29456v-5.2917h1.4779z"/>
   <path d="m60.603 112q0 0.62011-0.22221 1.1576-0.22221 0.53227-0.60461 0.92501-0.3824 0.38757-0.89917 0.61495-0.5116 0.22221-1.1007 0.22221-0.58394 0-1.1007-0.22221-0.5116-0.22738-0.89917-0.61495-0.3824-0.39274-0.60461-0.92501-0.22221-0.53744-0.22221-1.1576 0-0.63045 0.22221-1.1679 0.22221-0.53743 0.60461-0.92501 0.38757-0.39274 0.89917-0.61495 0.51676-0.22221 1.1007-0.22221 0.58911 0 1.1007 0.21188 0.51676 0.2067 0.89917 0.59428 0.38241 0.3824 0.60461 0.925 0.22221 0.53744 0.22221 1.1989zm-1.4211 0q0-0.34107-0.11369-0.61495-0.10852-0.27905-0.29972-0.47543-0.1912-0.20153-0.44958-0.30489-0.25322-0.10852-0.5426-0.10852t-0.54777 0.10852q-0.25321 0.10336-0.44442 0.30489-0.18604 0.19638-0.29456 0.47543-0.10852 0.27388-0.10852 0.61495 0 0.32039 0.10852 0.59428 0.10852 0.27388 0.29456 0.47542 0.1912 0.20154 0.44442 0.32039 0.25838 0.11369 0.54777 0.11369t0.5426-0.10852q0.25838-0.10852 0.44958-0.30489t0.29972-0.47542q0.11369-0.27906 0.11369-0.61495z"/>
   <path d="m62.794 114.82h-1.4108v-5.5345h0.34106l0.46509 0.65629q0.34106-0.31006 0.77515-0.47543 0.43408-0.17053 0.89917-0.17053h1.2454v1.4056h-1.2454q-0.22221 0-0.41858 0.0827-0.19637 0.0827-0.34106 0.22738-0.14469 0.14469-0.22738 0.34106-0.08268 0.19638-0.08268 0.41858z"/>
   <path d="m67.187 114.82h-1.4211v-7.736h1.4211z"/>
   <path d="m73.61 114.82h-0.34106l-0.54777-0.75964q-0.20154 0.18087-0.42891 0.34106-0.22221 0.15503-0.47026 0.27389-0.24805 0.11369-0.5116 0.18087-0.25838 0.0672-0.5271 0.0672-0.58394 0-1.1007-0.21705-0.5116-0.2222-0.89917-0.60978-0.3824-0.39274-0.60461-0.92501-0.22221-0.53743-0.22221-1.1679 0-0.62529 0.22221-1.1627 0.22221-0.53744 0.60461-0.93018 0.38757-0.39274 0.89917-0.61495 0.51676-0.22221 1.1007-0.22221 0.18604 0 0.38241 0.031 0.20154 0.031 0.38757 0.10335 0.1912 0.0672 0.35657 0.18087 0.16536 0.11369 0.27905 0.27905v-2.5838h1.4211zm-1.4211-2.8164q0-0.28939-0.11369-0.55811-0.10852-0.27388-0.29972-0.48059-0.1912-0.21187-0.44958-0.3359-0.25322-0.12919-0.5426-0.12919t-0.54777 0.10336q-0.25321 0.10335-0.44442 0.29972-0.18604 0.1912-0.29456 0.47026-0.10852 0.27905-0.10852 0.63045 0 0.30489 0.10852 0.57877 0.10852 0.27389 0.29456 0.48059 0.1912 0.20671 0.44442 0.32557 0.25838 0.11885 0.54777 0.11885t0.5426-0.12402q0.25838-0.12919 0.44958-0.3359 0.1912-0.21187 0.29972-0.48059 0.11369-0.27388 0.11369-0.56327z"/>
   <path d="m82.188 114.82h-1.4779v-5.2917q0-0.15503-0.06201-0.28939-0.05684-0.13436-0.1602-0.23255-0.09819-0.10335-0.23254-0.16019-0.13436-0.0568-0.28939-0.0568-0.15503 0-0.28939 0.0568-0.13436 0.0568-0.23771 0.16019-0.09819 0.0982-0.15503 0.23255-0.05684 0.13436-0.05684 0.28939v5.2917h-1.4831v-5.2917q0-0.15503-0.05684-0.28939t-0.1602-0.23255q-0.09819-0.10335-0.23254-0.16019-0.13436-0.0568-0.28939-0.0568t-0.28939 0.0568-0.23771 0.16019q-0.09819 0.0982-0.15503 0.23255-0.05684 0.13436-0.05684 0.28939v5.2917h-1.4831v-5.2917q0-0.45992 0.17053-0.863 0.1757-0.40824 0.47542-0.70797 0.30489-0.30489 0.70797-0.47542 0.40824-0.1757 0.86816-0.1757 0.41341 0 0.79582 0.14986 0.38241 0.1447 0.6873 0.42375 0.30489-0.27905 0.68213-0.42375 0.38241-0.14986 0.79582-0.14986 0.45992 0 0.863 0.1757 0.40824 0.17053 0.70797 0.47542 0.30489 0.29973 0.47542 0.70797 0.1757 0.40308 0.1757 0.863z"/>
   <path d="m88.658 114.82h-0.34106l-0.54777-0.75964q-0.20154 0.18087-0.42891 0.34106-0.22221 0.15503-0.47026 0.27389-0.24805 0.11369-0.5116 0.18087-0.25838 0.0672-0.5271 0.0672-0.58394 0-1.1007-0.19637-0.5116-0.19637-0.89917-0.56845-0.3824-0.37723-0.60461-0.91984-0.22221-0.5426-0.22221-1.2351 0-0.64596 0.22221-1.1834 0.22221-0.54261 0.60461-0.93018 0.38757-0.38757 0.89917-0.59944 0.51676-0.21705 1.1007-0.21705 0.26872 0 0.53227 0.0672 0.26355 0.0672 0.5116 0.18604 0.24805 0.11885 0.47026 0.27905 0.22738 0.1602 0.42375 0.34623l0.54777-0.65629h0.34106zm-1.4211-2.8164q0-0.28939-0.11369-0.55811-0.10852-0.27388-0.29972-0.48059-0.1912-0.21187-0.44958-0.3359-0.25322-0.12919-0.5426-0.12919t-0.54777 0.0982q-0.25321 0.0982-0.44442 0.28939-0.18604 0.1912-0.29456 0.47542-0.10852 0.27905-0.10852 0.64079 0 0.36173 0.10852 0.64595 0.10852 0.27906 0.29456 0.47026 0.1912 0.1912 0.44442 0.28939 0.25838 0.0982 0.54777 0.0982t0.5426-0.12402q0.25838-0.12919 0.44958-0.3359 0.1912-0.21187 0.29972-0.48059 0.11369-0.27388 0.11369-0.56327z"/>
   <path d="m91.154 116.92h-1.4211v-7.6429h0.34106l0.56327 0.66662q0.1912-0.18086 0.41858-0.34106 0.22738-0.1602 0.47026-0.27389 0.24805-0.11885 0.5116-0.18603 0.26355-0.0672 0.53227-0.0672 0.58394 0 1.0955 0.21187 0.51676 0.20671 0.89917 0.58911 0.38757 0.38241 0.60978 0.92501 0.22221 0.53744 0.22221 1.1937 0 0.68213-0.22221 1.2299-0.22221 0.5426-0.60978 0.925-0.3824 0.37724-0.89917 0.57878-0.5116 0.20154-1.0955 0.20154-0.18604 0-0.37207-0.0413-0.18087-0.0413-0.36174-0.10852-0.1757-0.0724-0.3514-0.1602-0.17053-0.0879-0.33073-0.18087zm2.8267-4.9248q0-0.3514-0.11369-0.63045-0.10852-0.27906-0.29972-0.47026-0.1912-0.19637-0.44958-0.29972-0.25838-0.10336-0.54777-0.10336t-0.54777 0.10336q-0.25322 0.10335-0.44442 0.29972-0.1912 0.1912-0.30489 0.47026-0.10852 0.27905-0.10852 0.63045 0 0.33589 0.10852 0.61495 0.11369 0.27905 0.30489 0.47542 0.1912 0.19637 0.44442 0.30489 0.25838 0.10852 0.54777 0.10852t0.54777-0.10852 0.44958-0.30489 0.29972-0.47542q0.11369-0.27906 0.11369-0.61495z"/>
   <path d="m101.34 112.59q0 0.45992-0.1757 0.86299-0.1757 0.40308-0.48059 0.70797-0.29972 0.29972-0.7028 0.47542-0.40308 0.1757-0.863 0.1757h-2.9662v-1.4831h2.9662q0.15503 0 0.28939-0.0568 0.13436-0.0568 0.23254-0.15503 0.10335-0.10336 0.1602-0.23772 0.05684-0.13435 0.05684-0.28938t-0.05684-0.28939-0.1602-0.23255q-0.09819-0.10335-0.23254-0.16019-0.13436-0.0568-0.28939-0.0568h-2.0205v-1.4831h2.0205q0.15503 0 0.28939-0.0568 0.13436-0.0568 0.23254-0.15503 0.10335-0.10336 0.1602-0.23771 0.05684-0.13953 0.05684-0.29456t-0.05684-0.28939-0.1602-0.23254q-0.09819-0.10336-0.23254-0.1602-0.13436-0.0568-0.28939-0.0568h-2.9662v-1.4831h2.9662q0.45992 0 0.863 0.1757 0.40308 0.1757 0.7028 0.48059 0.30489 0.29973 0.48059 0.7028 0.1757 0.40308 0.1757 0.863 0 0.40824-0.14986 0.79582-0.14986 0.3824-0.42375 0.68729 0.27389 0.30489 0.42375 0.69247 0.14986 0.3824 0.14986 0.79065z"/>
   <path d="m108.48 111.11q0 0.5116-0.13436 0.98702-0.12919 0.47026-0.37207 0.88367-0.24288 0.40824-0.57878 0.74931-0.3359 0.33589-0.74931 0.57877t-0.88883 0.37724q-0.47026 0.12919-0.98185 0.12919h-2.2324v-7.4104h2.2324q0.51159 0 0.98185 0.13436 0.47542 0.12919 0.88883 0.37207t0.74931 0.58395q0.3359 0.33589 0.57878 0.7493 0.24288 0.40825 0.37207 0.88367 0.13436 0.47026 0.13436 0.98185zm-1.4831 0q0-0.45992-0.1757-0.86299-0.17053-0.40308-0.47542-0.7028-0.29972-0.30489-0.70797-0.48059-0.40307-0.1757-0.86299-0.1757h-0.73898v4.4442h0.73898q0.45992 0 0.86299-0.17053 0.40825-0.1757 0.70797-0.47543 0.30489-0.30489 0.47542-0.70796 0.1757-0.40825 0.1757-0.86817z"/>
  </g>
 </g>
</svg>
