<?xml version="1.0" encoding="UTF-8"?>
<!-- Created with Inkscape (http://www.inkscape.org/) -->
<svg width="237.04mm" height="34.141mm" version="1.1" viewBox="0 0 237.04 34.141" xmlns="http://www.w3.org/2000/svg" xmlns:cc="http://creativecommons.org/ns#" xmlns:dc="http://purl.org/dc/elements/1.1/" xmlns:rdf="http://www.w3.org/1999/02/22-rdf-syntax-ns#">
 <metadata>
  <rdf:RDF>
   <cc:Work rdf:about="">
    <dc:format>image/svg+xml</dc:format>
    <dc:type rdf:resource="http://purl.org/dc/dcmitype/StillImage"/>
    <dc:title/>
   </cc:Work>
  </rdf:RDF>
 </metadata>
 <g transform="translate(-29.19 -228.84)">
  <g transform="matrix(.26458 0 0 .26458 -1.5119 223.46)" aria-label="Worldmap 3D">
   <path d="m116.04 24.436h13.281l20.443 82.161 20.378-82.161h14.779l20.443 82.161 20.378-82.161h13.346l-24.414 97.201h-16.536l-20.508-84.375-20.703 84.375h-16.536z"/>
   <path d="m276.46 57.118q-9.6354 0-15.234 7.5521-5.599 7.487-5.599 20.573t5.5338 20.638q5.599 7.487 15.299 7.487 9.5703 0 15.169-7.5521 5.599-7.5521 5.599-20.573 0-12.956-5.599-20.508-5.599-7.6172-15.169-7.6172zm0-10.156q15.625 0 24.544 10.156 8.9193 10.156 8.9193 28.125 0 17.904-8.9193 28.125-8.9193 10.156-24.544 10.156-15.69 0-24.609-10.156-8.8542-10.221-8.8542-28.125 0-17.969 8.8542-28.125 8.9193-10.156 24.609-10.156z"/>
   <path d="m372.03 59.918q-2.0182-1.1719-4.4271-1.6927-2.3438-0.58594-5.2083-0.58594-10.156 0-15.625 6.6406-5.4036 6.5755-5.4036 18.945v38.411h-12.044v-72.917h12.044v11.328q3.776-6.6406 9.8307-9.8307 6.0547-3.2552 14.714-3.2552 1.237 0 2.7344 0.19531 1.4974 0.13021 3.3203 0.45573z"/>
   <path d="m384.59 20.335h11.979v101.3h-11.979z"/>
   <path d="m469.62 59.788v-39.453h11.979v101.3h-11.979v-10.938q-3.776 6.5104-9.5703 9.7005-5.7292 3.125-13.802 3.125-13.216 0-21.549-10.547-8.2682-10.547-8.2682-27.734 0-17.187 8.2682-27.734 8.3333-10.547 21.549-10.547 8.0729 0 13.802 3.1901 5.7943 3.125 9.5703 9.6354zm-40.82 25.456q0 13.216 5.4036 20.768 5.4688 7.487 14.974 7.487 9.5052 0 14.974-7.487 5.4688-7.5521 5.4688-20.768 0-13.216-5.4688-20.703-5.4688-7.5521-14.974-7.5521-9.5052 0-14.974 7.5521-5.4036 7.487-5.4036 20.703z"/>
   <path d="m563.04 62.717q4.4922-8.0729 10.742-11.914 6.25-3.8411 14.714-3.8411 11.393 0 17.578 8.0078 6.1849 7.9427 6.1849 22.656v44.01h-12.044v-43.62q0-10.482-3.7109-15.56t-11.328-5.0781q-9.3099 0-14.714 6.1849-5.4036 6.1849-5.4036 16.862v41.211h-12.044v-43.62q0-10.547-3.7109-15.56-3.7109-5.0781-11.458-5.0781-9.1797 0-14.583 6.25-5.4036 6.1849-5.4036 16.797v41.211h-12.044v-72.917h12.044v11.328q4.1016-6.7057 9.8307-9.8958t13.607-3.1901q7.9427 0 13.477 4.0365 5.599 4.0365 8.2682 11.719z"/>
   <path d="m669.29 84.983q-14.518 0-20.117 3.3203-5.599 3.3203-5.599 11.328 0 6.3802 4.1667 10.156 4.2318 3.7109 11.458 3.7109 9.9609 0 15.951-7.0312 6.0547-7.0964 6.0547-18.815v-2.6693zm23.893-4.9479v41.602h-11.979v-11.068q-4.1016 6.6406-10.221 9.8307-6.1198 3.125-14.974 3.125-11.198 0-17.839-6.25-6.5755-6.3151-6.5755-16.862 0-12.305 8.2031-18.555 8.2682-6.25 24.609-6.25h16.797v-1.1719q0-8.2682-5.4688-12.76-5.4036-4.5573-15.234-4.5573-6.25 0-12.174 1.4974-5.9245 1.4974-11.393 4.4922v-11.068q6.5755-2.5391 12.76-3.776 6.1849-1.3021 12.044-1.3021 15.82 0 23.633 8.2031 7.8125 8.2031 7.8125 24.87z"/>
   <path d="m729.45 110.7v38.672h-12.044v-100.65h12.044v11.068q3.776-6.5104 9.5052-9.6354 5.7943-3.1901 13.802-3.1901 13.281 0 21.549 10.547 8.3333 10.547 8.3333 27.734 0 17.188-8.3333 27.734-8.2682 10.547-21.549 10.547-8.0078 0-13.802-3.125-5.7292-3.1901-9.5052-9.7005zm40.755-25.456q0-13.216-5.4688-20.703-5.4036-7.5521-14.909-7.5521-9.5052 0-14.974 7.5521-5.4036 7.487-5.4036 20.703 0 13.216 5.4036 20.768 5.4688 7.487 14.974 7.487 9.5052 0 14.909-7.487 5.4688-7.5521 5.4688-20.768z"/>
   <path d="m886.42 69.228q9.4401 2.0182 14.714 8.3984 5.3385 6.3802 5.3385 15.755 0 14.388-9.8958 22.266-9.8958 7.8776-28.125 7.8776-6.1198 0-12.63-1.237-6.4453-1.1719-13.346-3.5807v-12.695q5.4688 3.1901 11.979 4.8177 6.5104 1.6276 13.607 1.6276 12.37 0 18.815-4.8828 6.5104-4.8828 6.5104-14.193 0-8.5938-6.0547-13.411-5.9896-4.8828-16.732-4.8828h-11.328v-10.807h11.849q9.7005 0 14.844-3.8411 5.1432-3.9062 5.1432-11.198 0-7.487-5.3385-11.458-5.2734-4.0365-15.169-4.0365-5.4036 0-11.589 1.1719-6.1849 1.1719-13.607 3.6458v-11.719q7.487-2.0833 13.997-3.125 6.5755-1.0417 12.37-1.0417 14.974 0 23.698 6.8359 8.724 6.7708 8.724 18.359 0 8.0729-4.6224 13.672-4.6224 5.5339-13.151 7.6823z"/>
   <path d="m943.38 35.243v75.586h15.885q20.117 0 29.427-9.1146 9.375-9.1146 9.375-28.776 0-19.531-9.375-28.581-9.3099-9.1146-29.427-9.1146zm-13.151-10.807h27.018q28.255 0 41.471 11.784 13.216 11.719 13.216 36.719 0 25.13-13.281 36.914-13.281 11.784-41.406 11.784h-27.018z"/>
  </g>
 </g>
</svg>
